<svg xmlns="http://www.w3.org/2000/svg" width="32" height="32"><path d="M13.031 4A2.053 2.053 0 0011 6.031V7H4v2h7v.969c0 1.097.906 2.015 2 2.031h.031l.906.031h.032A2.053 2.053 0 0016 10v-.969L28 9V7l-12 .031v-.968c0-1.098-.91-2.016-2-2.032h-.031L13.063 4zM13 6h.031l.906.031h.032c.023 0 .031.008.031.032V10c0 .012.004.027 0 .031h-.031L13.063 10h-.032c-.023 0-.031-.008-.031-.031V6.03c0-.011-.004-.027 0-.031zm8.031 6A2.053 2.053 0 0019 14.031V15H4v2h15v.969c0 1.097.906 2.015 2 2.031h.031l.907.031h.03A2.053 2.053 0 0024 18v-.969L28 17v-2l-4 .031v-.969a2.049 2.049 0 00-2-2.03h-.031L21.062 12zM21 14h.031l.907.031h.03c.024 0 .032.008.032.031V18c0 .012.004.027 0 .031h-.031L21.062 18h-.03c-.024 0-.032-.008-.032-.031V14.03c0-.011-.004-.027 0-.031zM9.031 20A2.053 2.053 0 007 22.031V23H4v2h3v.969c0 1.097.906 2.015 2 2.031h.031l.906.031h.032A2.053 2.053 0 0012 26v-.969L28 25v-2l-16 .031v-.968a2.049 2.049 0 00-2-2.032h-.031L9.063 20zM9 22h.031l.906.031h.032c.023 0 .031.008.031.032V26c0 .012.004.027 0 .031h-.031L9.063 26H9.03C9.008 26 9 25.992 9 25.969V22.03c0-.011-.004-.027 0-.031z"/></svg>